<?xml version="1.0" encoding="UTF-8" standalone="no"?>
<!-- Created with Inkscape (http://www.inkscape.org/) -->

<svg
        width="512"
        height="512"
        viewBox="0 0 135.46666 135.46667"
        version="1.1"
        id="svg1"
        sodipodi:docname="display_logo.svg"
        inkscape:version="1.3.2 (091e20e, 2023-11-25, custom)"
        inkscape:export-filename="display_logo.png"
        inkscape:export-xdpi="96"
        inkscape:export-ydpi="96"
        xmlns:inkscape="http://www.inkscape.org/namespaces/inkscape"
        xmlns:sodipodi="http://sodipodi.sourceforge.net/DTD/sodipodi-0.dtd"
        xmlns="http://www.w3.org/2000/svg"
>
    <sodipodi:namedview
            id="namedview1"
            pagecolor="#505050"
            bordercolor="#eeeeee"
            borderopacity="1"
            inkscape:showpageshadow="0"
            inkscape:pageopacity="0"
            inkscape:pagecheckerboard="0"
            inkscape:deskcolor="#505050"
            inkscape:document-units="mm"
            inkscape:zoom="0.82772562"
            inkscape:cx="224.10808"
            inkscape:cy="160.68127"
            inkscape:window-width="2560"
            inkscape:window-height="1571"
            inkscape:window-x="-9"
            inkscape:window-y="-9"
            inkscape:window-maximized="1"
            inkscape:current-layer="layer1"/>
    <defs
            id="defs1">
        <filter
                inkscape:collect="always"
                style="color-interpolation-filters:sRGB"
                id="filter1"
                x="-0.48968548"
                y="-0.25569929"
                width="1.979371"
                height="1.5113986">
            <feGaussianBlur
                    inkscape:collect="always"
                    stdDeviation="5.2340583"
                    id="feGaussianBlur1"/>
        </filter>
        <filter
                inkscape:collect="always"
                style="color-interpolation-filters:sRGB"
                id="filter2"
                x="-0.25572866"
                y="-0.48969495"
                width="1.5114573"
                height="1.9793899">
            <feGaussianBlur
                    inkscape:collect="always"
                    stdDeviation="5.2340583"
                    id="feGaussianBlur2"/>
        </filter>
        <filter
                inkscape:collect="always"
                style="color-interpolation-filters:sRGB"
                id="filter3"
                x="-0.49027147"
                y="-0.25564794"
                width="1.9805429"
                height="1.5112959">
            <feGaussianBlur
                    inkscape:collect="always"
                    stdDeviation="5.2340583"
                    id="feGaussianBlur3"/>
        </filter>
        <filter
                inkscape:collect="always"
                style="color-interpolation-filters:sRGB"
                id="filter4"
                x="-0.25565624"
                y="-0.4902684"
                width="1.5113125"
                height="1.9805368">
            <feGaussianBlur
                    inkscape:collect="always"
                    stdDeviation="5.2340583"
                    id="feGaussianBlur4"/>
        </filter>
        <filter
                inkscape:collect="always"
                style="color-interpolation-filters:sRGB"
                id="filter5"
                x="-0.25757503"
                y="-0.41860005"
                width="1.5151501"
                height="1.8372001">
            <feGaussianBlur
                    inkscape:collect="always"
                    stdDeviation="5.2340583"
                    id="feGaussianBlur5"/>
        </filter>
        <filter
                inkscape:collect="always"
                style="color-interpolation-filters:sRGB"
                id="filter6"
                x="-0.41860287"
                y="-0.25757586"
                width="1.8372057"
                height="1.5151517">
            <feGaussianBlur
                    inkscape:collect="always"
                    stdDeviation="5.2340583"
                    id="feGaussianBlur6"/>
        </filter>
        <filter
                inkscape:collect="always"
                style="color-interpolation-filters:sRGB"
                id="filter7"
                x="-0.25757543"
                y="-0.41860307"
                width="1.5151509"
                height="1.8372061">
            <feGaussianBlur
                    inkscape:collect="always"
                    stdDeviation="5.2340583"
                    id="feGaussianBlur7"/>
        </filter>
        <filter
                inkscape:collect="always"
                style="color-interpolation-filters:sRGB"
                id="filter8"
                x="-0.41859881"
                y="-0.2575744"
                width="1.8371976"
                height="1.5151488">
            <feGaussianBlur
                    inkscape:collect="always"
                    stdDeviation="5.2340583"
                    id="feGaussianBlur8"/>
        </filter>
    </defs>
    <g
            inkscape:label="Layer 1"
            inkscape:groupmode="layer"
            id="layer1">
        <path
                d="m 49.140971,14.236047 c -0.740453,0.01498 -1.496954,0.151527 -2.248352,0.448709 -2.404476,0.950982 -3.717241,3.134256 -4.330442,5.159751 -0.613199,2.025495 -0.737962,4.199811 -0.610565,6.604835 0.254794,4.810047 1.621345,10.558444 3.997115,16.565371 0.210094,0.531202 0.429651,1.046608 0.648225,1.56367 5.287972,2.430809 9.794561,5.272556 13.075056,8.222991 1.790685,1.61052 3.239656,3.237031 4.238296,5.102862 0.823416,1.538449 1.37033,3.490023 0.966326,5.457421 0.379052,-0.07315 0.759284,-0.178097 1.1386,-0.328118 0.380796,-0.150607 0.731213,-0.335123 1.058872,-0.542056 -1.639741,-1.158765 -2.574801,-2.956163 -3.026381,-4.641333 -0.547777,-2.044147 -0.603663,-4.221987 -0.39903,-6.621661 0.374728,-4.39436 1.71748,-9.547715 3.910577,-14.935596 -0.19473,-0.52813 -0.38747,-1.055839 -0.598144,-1.58851 -2.37577,-6.006927 -5.311021,-11.134746 -8.415295,-14.817809 -1.552138,-1.841533 -3.130265,-3.342855 -4.963041,-4.400953 -1.260033,-0.727443 -2.81282,-1.282524 -4.441817,-1.249574 z m 0.816891,8.193745 c 0.656106,0.425075 1.591267,1.184512 2.659801,2.452274 2.337889,2.773786 5.017203,7.320294 7.134472,12.673622 2.117268,5.353329 3.271982,10.500574 3.463872,14.123113 0.0877,1.655685 -0.07496,2.849635 -0.262815,3.6085 -0.656098,-0.424985 -1.592676,-1.18348 -2.661405,-2.451473 -2.337922,-2.773771 -5.016401,-7.319091 -7.13367,-12.67242 -2.117269,-5.353329 -3.273184,-10.502176 -3.465074,-14.124715 -0.08772,-1.655986 0.07691,-2.850107 0.264819,-3.608901 z"
                style="fill:#000000;fill-opacity:1;stroke-width:0.232582;stroke-linecap:round;stroke-dasharray:none;filter:url(#filter1)"
                id="path32"
                transform="matrix(1.0501892,0,0,1.0501892,-2.7269376,-1.3777727)"/>
        <path
                d="m 108.0268,40.51276 c -0.57357,-0.0034 -1.16032,0.01262 -1.76158,0.04447 -4.81005,0.254795 -10.558445,1.620944 -16.565373,3.996715 -0.476193,0.188336 -0.936952,0.385743 -1.401815,0.580917 -2.44197,5.336225 -5.302334,9.883726 -8.27347,13.187234 -1.610519,1.790685 -3.237431,3.239657 -5.103263,4.238296 -1.566244,0.838293 -3.560271,1.392995 -5.563589,0.945894 0.07308,0.370941 0.176517,0.743004 0.323311,1.114161 0.166906,0.422007 0.373592,0.808469 0.608962,1.165441 1.157046,-1.678696 2.980564,-2.630398 4.687005,-3.087678 1.277591,-0.342361 2.607197,-0.492478 4.010335,-0.507202 0.841883,-0.0088 1.710246,0.03103 2.610124,0.107771 4.364683,0.372199 9.4776,1.698914 14.825819,3.865706 0.527743,-0.19459 1.055036,-0.387227 1.587307,-0.597744 6.006937,-2.37577 11.134757,-5.311019 14.817817,-8.415294 1.84154,-1.552137 3.34125,-3.129865 4.39935,-4.96264 1.0581,-1.832778 1.75225,-4.285695 0.80127,-6.69017 -0.95099,-2.404475 -3.13466,-3.717644 -5.16016,-4.330842 -1.51912,-0.459901 -3.12135,-0.644891 -4.84205,-0.655035 z m -0.19551,7.763465 c 1.06927,0.01783 1.88262,0.145245 2.45188,0.286052 -0.42525,0.656126 -1.18297,1.592855 -2.45027,2.661004 -2.77379,2.337888 -7.3203,5.016802 -12.67363,7.13407 -5.353327,2.117269 -10.500972,3.272383 -14.12351,3.464273 -1.655088,0.08767 -2.848293,-0.07747 -3.607299,-0.265219 0.425257,-0.656127 1.183387,-1.59127 2.450671,-2.659401 2.773786,-2.337887 7.318691,-5.016401 12.672022,-7.13367 5.353323,-2.117269 10.502576,-3.272783 14.125116,-3.464674 0.41376,-0.02192 0.7986,-0.02838 1.15502,-0.02244 z"
                style="fill:#000000;fill-opacity:1;stroke-width:0.232582;stroke-linecap:round;stroke-dasharray:none;filter:url(#filter2)"
                id="path31"
                transform="matrix(1.0501892,0,0,1.0501892,-2.7269376,-1.3777727)"/>
        <path
                d="m 69.316044,68.025426 c -0.395736,0.07301 -0.79289,0.182641 -1.189079,0.339336 -0.396123,0.156669 -0.7599,0.349533 -1.098535,0.566896 1.686377,1.156198 2.641317,2.983674 3.099697,4.694215 0.547779,2.04415 0.603662,4.221985 0.39903,6.621662 -0.37481,4.395354 -1.718544,9.549654 -3.912581,14.9388 0.1856,0.501461 0.367755,1.002047 0.567697,1.507586 2.37577,6.006919 5.309417,11.135139 8.413693,14.818209 1.552136,1.84152 3.131064,3.34044 4.963842,4.39854 1.832775,1.0581 4.284492,1.75265 6.688967,0.80167 2.404475,-0.95098 3.717641,-3.13426 4.330842,-5.15975 0.613198,-2.0255 0.73956,-4.19901 0.612167,-6.60403 C 91.936989,100.13851 90.569237,94.39051 88.193467,88.383588 87.993698,87.878489 87.784327,87.389176 87.576894,86.896839 82.289762,84.466226 77.783935,81.624723 74.50384,78.67465 72.713157,77.064132 71.265385,75.43802 70.266746,73.572189 69.430909,72.010533 68.876545,70.022997 69.316044,68.025426 Z m 1.874962,8.086776 c 0.656125,0.425245 1.592856,1.182568 2.661004,2.449869 2.337886,2.773782 5.014799,7.319494 7.132068,12.672818 2.117268,5.353331 3.273583,10.500571 3.465474,14.123111 0.08768,1.65515 -0.07666,2.84951 -0.264417,3.60851 -0.656126,-0.42524 -1.593221,-1.18413 -2.661404,-2.45147 -2.337891,-2.7738 -5.0148,-7.319502 -7.132068,-12.672825 -2.117269,-5.353331 -3.273987,-10.50018 -3.465876,-14.122714 -0.08767,-1.655086 0.07747,-2.848298 0.265219,-3.607299 z"
                style="fill:#000000;fill-opacity:1;stroke-width:0.232582;stroke-linecap:round;stroke-dasharray:none;filter:url(#filter3)"
                id="path30"
                transform="matrix(1.0501892,0,0,1.0501892,-2.7269376,-1.3777727)"/>
        <path
                d="m 37.638399,65.264263 c -0.501353,0.185545 -1.001763,0.367802 -1.507182,0.567697 -6.006926,2.37577 -11.134345,5.311021 -14.817409,8.415295 -1.841532,1.552138 -3.341251,3.129464 -4.39935,4.96224 -1.058099,1.832776 -1.752649,4.284492 -0.801666,6.688967 0.950982,2.404476 3.135058,3.718845 5.160552,4.332044 2.025495,0.613197 4.198208,0.738364 6.603232,0.610964 4.810047,-0.254795 10.558444,-1.621343 16.565371,-3.997114 0.505216,-0.199815 0.994707,-0.409075 1.487149,-0.616574 2.43068,-5.287416 5.271993,-9.793622 8.22219,-13.073854 1.61052,-1.790687 3.237029,-3.239656 5.102862,-4.238296 1.166146,-0.62415 2.569549,-1.098599 4.037178,-1.115763 0.497065,-0.0058 1.001593,0.04835 1.506781,0.159452 -0.07312,-0.393846 -0.180629,-0.789281 -0.336532,-1.183469 -0.156625,-0.396013 -0.349628,-0.759579 -0.566896,-1.098135 -1.156168,1.686838 -2.983821,2.64205 -4.694616,3.100498 -2.044155,0.547779 -4.221978,0.603663 -6.621662,0.39903 -4.39559,-0.374833 -9.550491,-1.71874 -14.940002,-3.912982 z m 16.625065,4.289978 c 1.070002,0.01803 1.88398,0.145923 2.453075,0.286853 -0.425075,0.656108 -1.184512,1.591267 -2.452275,2.659802 -2.773784,2.337888 -7.320293,5.017203 -12.673621,7.134471 -5.35333,2.117269 -10.500975,3.271982 -14.123514,3.463873 -1.655684,0.0877 -2.849234,-0.07496 -3.6081,-0.262815 0.424987,-0.656098 1.183481,-1.593077 2.451473,-2.661805 2.773786,-2.337888 7.319091,-5.016001 12.672421,-7.13327 5.353329,-2.117269 10.502176,-3.273184 14.124715,-3.465075 0.413996,-0.02193 0.799158,-0.02804 1.155826,-0.02203 z"
                style="fill:#000000;fill-opacity:1;stroke-width:0.232582;stroke-linecap:round;stroke-dasharray:none;filter:url(#filter4)"
                id="path29"
                transform="matrix(1.0501892,0,0,1.0501892,-2.7269376,-1.3777727)"/>
        <path
                d="m 26.09376,39.27881 c -1.403146,0.01472 -2.732337,0.16524 -4.009935,0.507603 -2.044157,0.547779 -4.268993,1.789909 -5.296768,4.162576 -1.027775,2.372666 -0.412117,4.845164 0.586526,6.711002 0.998644,1.865839 2.446002,3.492337 4.236694,5.102861 3.581384,3.221051 8.612708,6.318023 14.540171,8.885638 5.927462,2.567616 11.628581,4.11949 16.427953,4.528755 2.399687,0.204633 4.577504,0.14875 6.621662,-0.39903 2.044156,-0.54778 4.268592,-1.789909 5.296367,-4.162576 1.027775,-2.372667 0.412517,-4.845565 -0.586126,-6.711403 C 62.911661,56.038397 61.4627,54.4119 59.672008,52.801374 56.090624,49.580324 51.059299,46.482951 45.131836,43.915336 39.204375,41.34772 33.503257,39.795847 28.703883,39.386581 27.804001,39.309841 26.935647,39.269977 26.09376,39.27881 Z m 0.79806,7.773481 c 0.356488,0.0053 0.74137,0.02409 1.154224,0.05929 3.614499,0.308226 8.721614,1.629549 14.004124,3.917789 5.282511,2.28824 9.741242,5.110472 12.438451,7.536307 1.232317,1.108329 1.959392,2.06887 2.363334,2.738326 -0.764649,0.163254 -1.962696,0.289858 -3.61411,0.149035 -3.6145,-0.308226 -8.723216,-1.62995 -14.005727,-3.91819 -5.28251,-2.288241 -9.73964,-5.110071 -12.436848,-7.535906 -1.232317,-1.10833 -1.959392,-2.068869 -2.363334,-2.738326 0.573487,-0.12244 1.390423,-0.224485 2.459886,-0.20833 z"
                style="fill:#000000;fill-opacity:1;stroke-width:0.232582;stroke-linecap:round;stroke-dasharray:none;filter:url(#filter5)"
                id="path28"
                transform="matrix(1.0501892,0,0,1.0501892,-2.7269376,-1.3777727)"/>
        <path
                d="m 86.202722,14.907908 c -1.467633,0.01716 -2.871028,0.49161 -4.037178,1.115763 -1.865838,0.998643 -3.491936,2.446001 -5.10246,4.236693 -3.221051,3.581384 -6.318423,8.612709 -8.886039,14.540172 -2.567616,5.927462 -4.119088,11.62858 -4.528354,16.427953 -0.204633,2.399687 -0.14875,4.577504 0.39903,6.621661 0.54778,2.044157 1.789909,4.268593 4.162576,5.296368 2.372667,1.027775 4.845164,0.412517 6.711002,-0.586126 1.86584,-0.998643 3.492738,-2.447604 5.103263,-4.238296 3.221053,-3.581383 6.318423,-8.61271 8.886038,-14.540171 2.567616,-5.927462 4.11909,-11.62858 4.528357,-16.427954 0.204633,-2.399686 0.148348,-4.575901 -0.399436,-6.620059 -0.547776,-2.044158 -1.789906,-4.268993 -4.162574,-5.296768 -0.88975,-0.385415 -1.793644,-0.539534 -2.674225,-0.529236 z m -0.637407,8.174114 c 0.163255,0.764649 0.28986,1.962695 0.149036,3.61411 -0.308225,3.614499 -1.629549,8.721613 -3.91779,14.004124 -2.28824,5.282511 -5.110471,9.741243 -7.536306,12.438451 -1.108331,1.232317 -2.068869,1.959392 -2.738326,2.363334 -0.163254,-0.764649 -0.28986,-1.962695 -0.149035,-3.61411 0.308225,-3.614499 1.629949,-8.723216 3.91819,-14.005727 2.28824,-5.282511 5.110071,-9.73964 7.535905,-12.436848 1.108331,-1.232318 2.06887,-1.959392 2.738326,-2.363334 z"
                style="fill:#000000;fill-opacity:1;stroke-width:0.232582;stroke-linecap:round;stroke-dasharray:none;filter:url(#filter6)"
                id="path27"
                transform="matrix(1.0501892,0,0,1.0501892,-2.7269376,-1.3777727)"/>
        <path
                d="m 78.987323,62.191008 c -1.403145,0.01472 -2.732737,0.164839 -4.010335,0.507202 -2.044158,0.547779 -4.270196,1.789508 -5.297971,4.162175 -1.027774,2.372667 -0.410914,4.845965 0.587729,6.711804 0.998643,1.865838 2.446403,3.491936 4.237094,5.102461 3.581388,3.221052 8.612703,6.31842 14.540171,8.886038 5.927465,2.567615 11.628579,4.119494 16.427949,4.528753 2.39969,0.204633 4.57591,0.147953 6.62007,-0.399831 2.04415,-0.547777 4.26899,-1.789908 5.29677,-4.162575 1.02777,-2.372666 0.41211,-4.845165 -0.58653,-6.711002 -0.99864,-1.865837 -2.446,-3.492337 -4.2367,-5.102862 -3.58138,-3.221049 -8.61311,-6.318023 -14.540569,-8.885638 -5.927467,-2.567618 -11.628178,-4.119487 -16.427554,-4.528754 -0.899882,-0.07674 -1.768237,-0.116605 -2.610124,-0.107771 z m 0.796859,7.77268 c 0.356488,0.0053 0.740968,0.02409 1.153823,0.05929 3.614495,0.308224 8.72321,1.629947 14.005724,3.91819 5.282511,2.288239 9.739641,5.11007 12.436851,7.535906 1.23231,1.108328 1.95939,2.068869 2.36333,2.738326 -0.76465,0.163253 -1.96269,0.289858 -3.61411,0.149035 -3.6145,-0.308227 -8.721613,-1.62955 -14.004123,-3.917789 -5.282514,-2.288242 -9.741244,-5.110473 -12.438448,-7.536306 -1.232322,-1.108332 -1.959397,-2.068872 -2.363334,-2.738326 0.573484,-0.122442 1.390822,-0.224486 2.460287,-0.208329 z"
                style="fill:#000000;fill-opacity:1;stroke-width:0.232582;stroke-linecap:round;stroke-dasharray:none;filter:url(#filter7)"
                id="path26"
                transform="matrix(1.0501892,0,0,1.0501892,-2.7269376,-1.3777727)"/>
        <path
                d="m 63.291326,67.799869 c -1.467635,0.01716 -2.871028,0.49161 -4.037178,1.115763 -1.86584,0.998644 -3.492335,2.447602 -5.102862,4.238296 -3.221053,3.581388 -6.31842,8.612703 -8.886038,14.540171 -2.567618,5.927465 -4.119489,11.628576 -4.528755,16.427951 -0.204633,2.39969 -0.14795,4.5759 0.399832,6.62006 0.547778,2.04416 1.789907,4.26899 4.162576,5.29677 2.372669,1.02777 4.84516,0.41212 6.711002,-0.58653 1.86584,-0.99864 3.492335,-2.446 5.102862,-4.23669 3.221056,-3.58139 6.318019,-8.6131 8.885637,-14.54057 2.567618,-5.927467 4.119492,-11.628176 4.528755,-16.427555 0.204633,-2.399689 0.148751,-4.577502 -0.39903,-6.621662 -0.54778,-2.044159 -1.789906,-4.268591 -4.162576,-5.296367 C 65.0758,67.94409 64.171907,67.789571 63.291326,67.799869 Z m -0.637407,8.174114 c 0.163255,0.764651 0.28986,1.962694 0.149035,3.61411 -0.308225,3.614502 -1.630348,8.723211 -3.918591,14.005724 -2.288242,5.282518 -5.109667,9.739643 -7.535504,12.436853 -1.108332,1.23232 -2.068869,1.95939 -2.738326,2.36333 -0.163254,-0.76465 -0.28986,-1.96269 -0.149036,-3.61411 0.308227,-3.6145 1.629547,-8.721607 3.91779,-14.004124 2.288242,-5.282514 5.11047,-9.741238 7.536306,-12.438449 1.108331,-1.232318 2.068869,-1.959391 2.738326,-2.363334 z"
                style="fill:#000000;fill-opacity:1;stroke-width:0.232582;stroke-linecap:round;stroke-dasharray:none;filter:url(#filter8)"
                id="path25"
                transform="matrix(1.0501892,0,0,1.0501892,-2.7269376,-1.3777727)"/>
        <path
                d="m 49.060331,13.638751 c -0.740453,0.01498 -1.496954,0.151527 -2.248352,0.448709 -2.404476,0.950982 -3.717241,3.134256 -4.330442,5.159751 -0.613199,2.025495 -0.737962,4.199811 -0.610565,6.604835 0.254794,4.810047 1.621345,10.558444 3.997115,16.565371 0.210094,0.531202 0.429651,1.046608 0.648225,1.56367 5.287972,2.430809 9.794559,5.272556 13.075059,8.222991 1.79068,1.61052 3.23965,3.237031 4.23829,5.102862 0.82342,1.538449 1.37033,3.490023 0.96633,5.457421 0.37905,-0.07315 0.75928,-0.178097 1.1386,-0.328118 0.3808,-0.150607 0.73121,-0.335123 1.05887,-0.542056 -1.63974,-1.158765 -2.5748,-2.956163 -3.02638,-4.641333 -0.54778,-2.044147 -0.60366,-4.221987 -0.39903,-6.621661 0.37473,-4.39436 1.71748,-9.547715 3.91058,-14.935596 -0.19473,-0.52813 -0.38747,-1.055839 -0.59815,-1.58851 -2.37577,-6.006927 -5.31102,-11.134746 -8.41529,-14.817809 -1.55214,-1.841533 -3.13027,-3.342855 -4.96304,-4.400953 -1.26004,-0.727443 -2.812823,-1.282524 -4.44182,-1.249574 z m 0.816891,8.193745 c 0.656106,0.425075 1.591267,1.184512 2.659799,2.452274 2.33789,2.773786 5.01721,7.320294 7.13447,12.673622 2.11727,5.353329 3.27199,10.500574 3.46388,14.123113 0.0877,1.655685 -0.075,2.849635 -0.26282,3.6085 -0.6561,-0.424985 -1.59267,-1.18348 -2.6614,-2.451473 -2.33793,-2.773771 -5.0164,-7.319091 -7.13367,-12.67242 -2.117273,-5.353329 -3.273188,-10.502176 -3.465078,-14.124715 -0.08772,-1.655986 0.07691,-2.850107 0.264819,-3.608901 z"
                style="fill:#ffffff;stroke-width:0.232582;stroke-linecap:round;stroke-dasharray:none"
                id="path32-2"/>
        <path
                d="m 107.94616,39.915464 c -0.57357,-0.0034 -1.16032,0.01262 -1.76158,0.04447 -4.81005,0.254795 -10.558449,1.620944 -16.565369,3.996715 -0.4762,0.188336 -0.93696,0.385743 -1.40182,0.580917 -2.44197,5.336225 -5.30233,9.883726 -8.27347,13.187234 -1.61052,1.790685 -3.23743,3.239657 -5.10326,4.238296 -1.56625,0.838293 -3.56027,1.392995 -5.56359,0.945894 0.0731,0.370941 0.17652,0.743004 0.32331,1.114161 0.16691,0.422007 0.37359,0.808469 0.60896,1.165441 1.15705,-1.678696 2.98057,-2.630398 4.68701,-3.087678 1.27759,-0.342361 2.60719,-0.492478 4.01033,-0.507202 0.84189,-0.0088 1.71025,0.03103 2.61013,0.107771 4.36468,0.372199 9.4776,1.698914 14.82581,3.865706 0.52775,-0.19459 1.05504,-0.387227 1.58731,-0.597744 6.006939,-2.37577 11.134759,-5.311019 14.817819,-8.415294 1.84154,-1.552137 3.34125,-3.129865 4.39935,-4.96264 1.0581,-1.832778 1.75225,-4.285695 0.80127,-6.69017 -0.95099,-2.404475 -3.13466,-3.717644 -5.16016,-4.330842 -1.51912,-0.459901 -3.12135,-0.644891 -4.84205,-0.655035 z m -0.19551,7.763465 c 1.06927,0.01783 1.88262,0.145245 2.45188,0.286052 -0.42525,0.656126 -1.18297,1.592855 -2.45027,2.661004 -2.77379,2.337888 -7.3203,5.016802 -12.673629,7.13407 -5.35333,2.117269 -10.50097,3.272383 -14.12351,3.464273 -1.65509,0.08767 -2.84829,-0.07747 -3.6073,-0.265219 0.42526,-0.656127 1.18339,-1.59127 2.45067,-2.659401 2.77379,-2.337887 7.31869,-5.016401 12.67202,-7.13367 5.35333,-2.117269 10.502579,-3.272783 14.125119,-3.464674 0.41376,-0.02192 0.7986,-0.02838 1.15502,-0.02244 z"
                style="fill:#ffffff;stroke-width:0.232582;stroke-linecap:round;stroke-dasharray:none"
                id="path31-3"/>
        <path
                d="m 69.235401,67.42813 c -0.39573,0.07301 -0.79289,0.182641 -1.18908,0.339336 -0.39612,0.156669 -0.7599,0.349533 -1.09853,0.566896 1.68638,1.156198 2.64132,2.983674 3.0997,4.694215 0.54778,2.04415 0.60366,4.221985 0.39903,6.621662 -0.37481,4.395354 -1.71855,9.549654 -3.91258,14.9388 0.18559,0.501461 0.36775,1.002047 0.56769,1.507586 2.37577,6.006915 5.30942,11.135135 8.41369,14.818205 1.55214,1.84152 3.13107,3.34044 4.96385,4.39854 1.83277,1.0581 4.28449,1.75265 6.68896,0.80167 2.40448,-0.95098 3.71764,-3.13426 4.33085,-5.15975 0.61319,-2.0255 0.73956,-4.19901 0.61216,-6.60403 -0.25479,-4.810046 -1.62254,-10.558046 -3.99831,-16.564968 -0.19977,-0.505099 -0.40914,-0.994412 -0.61658,-1.486749 -5.28713,-2.430613 -9.79296,-5.272116 -13.07305,-8.222189 -1.79068,-1.610518 -3.23846,-3.23663 -4.23709,-5.102461 -0.83584,-1.561656 -1.39021,-3.549192 -0.95071,-5.546763 z m 1.87497,8.086776 c 0.65612,0.425245 1.59285,1.182568 2.661,2.449869 2.33789,2.773782 5.0148,7.319494 7.13207,12.672818 2.11726,5.353331 3.27358,10.500567 3.46547,14.123107 0.0877,1.65515 -0.0767,2.84951 -0.26442,3.60851 -0.65612,-0.42524 -1.59322,-1.18413 -2.6614,-2.45147 -2.33789,-2.7738 -5.0148,-7.319498 -7.13207,-12.672821 -2.11727,-5.353331 -3.27398,-10.50018 -3.46587,-14.122714 -0.0877,-1.655086 0.0775,-2.848298 0.26522,-3.607299 z"
                style="fill:#ffffff;stroke-width:0.232582;stroke-linecap:round;stroke-dasharray:none"
                id="path30-4"/>
        <path
                d="m 37.557759,64.666967 c -0.501353,0.185545 -1.001763,0.367802 -1.507182,0.567697 -6.006926,2.37577 -11.134345,5.311021 -14.817409,8.415295 -1.841532,1.552138 -3.341251,3.129464 -4.39935,4.96224 -1.058099,1.832776 -1.752649,4.284492 -0.801666,6.688967 0.950982,2.404476 3.135058,3.718845 5.160552,4.332044 2.025495,0.613197 4.198208,0.738364 6.603232,0.610964 4.810047,-0.254795 10.558444,-1.621343 16.565371,-3.997114 0.505216,-0.199815 0.994707,-0.409075 1.487149,-0.616574 2.43068,-5.287416 5.271993,-9.793622 8.222195,-13.073854 1.61051,-1.790687 3.23702,-3.239656 5.10286,-4.238296 1.16614,-0.62415 2.56955,-1.098599 4.03718,-1.115763 0.49706,-0.0058 1.00159,0.04835 1.50678,0.159452 -0.0731,-0.393846 -0.18063,-0.789281 -0.33654,-1.183469 -0.15662,-0.396013 -0.34962,-0.759579 -0.56689,-1.098135 -1.15617,1.686838 -2.98382,2.64205 -4.69462,3.100498 -2.04415,0.547779 -4.22198,0.603663 -6.62166,0.39903 -4.39559,-0.374833 -9.550491,-1.71874 -14.940002,-3.912982 z m 16.625062,4.289978 c 1.07001,0.01803 1.88398,0.145923 2.45308,0.286853 -0.42508,0.656108 -1.18451,1.591267 -2.45228,2.659802 -2.773781,2.337888 -7.32029,5.017203 -12.673618,7.134471 -5.35333,2.117269 -10.500975,3.271982 -14.123514,3.463873 -1.655684,0.0877 -2.849234,-0.07496 -3.6081,-0.262815 0.424987,-0.656098 1.183481,-1.593077 2.451473,-2.661805 2.773786,-2.337888 7.319091,-5.016001 12.672421,-7.13327 5.353329,-2.117269 10.502176,-3.273184 14.124718,-3.465075 0.41399,-0.02193 0.79916,-0.02804 1.15582,-0.02203 z"
                style="fill:#ffffff;stroke-width:0.232582;stroke-linecap:round;stroke-dasharray:none"
                id="path29-5"/>
        <path
                d="m 26.01312,38.681514 c -1.403146,0.01472 -2.732337,0.16524 -4.009935,0.507603 -2.044157,0.547779 -4.268993,1.789909 -5.296768,4.162576 -1.027775,2.372666 -0.412117,4.845164 0.586526,6.711002 0.998644,1.865839 2.446002,3.492337 4.236694,5.102861 3.581384,3.221051 8.612708,6.318023 14.540171,8.885638 5.927462,2.567616 11.628581,4.11949 16.427953,4.528755 2.39969,0.204633 4.5775,0.14875 6.62166,-0.39903 2.04416,-0.54778 4.26859,-1.789909 5.29637,-4.162576 1.02777,-2.372667 0.41252,-4.845565 -0.58613,-6.711403 -0.99864,-1.865839 -2.4476,-3.492336 -4.23829,-5.102862 -3.58139,-3.22105 -8.612712,-6.318423 -14.540175,-8.886038 -5.927461,-2.567616 -11.628579,-4.119489 -16.427953,-4.528755 -0.899882,-0.07674 -1.768236,-0.116604 -2.610123,-0.107771 z m 0.79806,7.773481 c 0.356488,0.0053 0.74137,0.02409 1.154224,0.05929 3.614499,0.308226 8.721614,1.629549 14.004124,3.917789 5.282511,2.28824 9.741242,5.110472 12.438453,7.536307 1.23232,1.108329 1.95939,2.06887 2.36333,2.738326 -0.76465,0.163254 -1.96269,0.289858 -3.61411,0.149035 -3.614498,-0.308226 -8.723214,-1.62995 -14.005725,-3.91819 -5.28251,-2.288241 -9.73964,-5.110071 -12.436848,-7.535906 -1.232317,-1.10833 -1.959392,-2.068869 -2.363334,-2.738326 0.573487,-0.12244 1.390423,-0.224485 2.459886,-0.20833 z"
                style="fill:#ffffff;stroke-width:0.232582;stroke-linecap:round;stroke-dasharray:none"
                id="path28-1"/>
        <path
                d="m 86.122081,14.310612 c -1.46763,0.01716 -2.87103,0.49161 -4.03718,1.115763 -1.86584,0.998643 -3.49193,2.446001 -5.10246,4.236693 -3.22105,3.581384 -6.31842,8.612709 -8.88604,14.540172 -2.56761,5.927462 -4.11908,11.62858 -4.52835,16.427953 -0.20463,2.399687 -0.14875,4.577504 0.39903,6.621661 0.54778,2.044157 1.78991,4.268593 4.16258,5.296368 2.37266,1.027775 4.84516,0.412517 6.711,-0.586126 1.86584,-0.998643 3.49274,-2.447604 5.10326,-4.238296 3.22105,-3.581383 6.31842,-8.61271 8.88604,-14.540171 2.56761,-5.927462 4.11909,-11.62858 4.52836,-16.427954 0.20463,-2.399686 0.14834,-4.575901 -0.39944,-6.620059 -0.54778,-2.044158 -1.78991,-4.268993 -4.16257,-5.296768 -0.88975,-0.385415 -1.79365,-0.539534 -2.67423,-0.529236 z m -0.63741,8.174114 c 0.16326,0.764649 0.28986,1.962695 0.14904,3.61411 -0.30823,3.614499 -1.62955,8.721613 -3.91779,14.004124 -2.28824,5.282511 -5.11047,9.741243 -7.53631,12.438451 -1.10833,1.232317 -2.06887,1.959392 -2.73832,2.363334 -0.16326,-0.764649 -0.28986,-1.962695 -0.14904,-3.61411 0.30823,-3.614499 1.62995,-8.723216 3.91819,-14.005727 2.28824,-5.282511 5.11007,-9.73964 7.53591,-12.436848 1.10833,-1.232318 2.06887,-1.959392 2.73832,-2.363334 z"
                style="fill:#ffffff;stroke-width:0.232582;stroke-linecap:round;stroke-dasharray:none"
                id="path27-7"/>
        <path
                d="m 78.906681,61.593712 c -1.40314,0.01472 -2.73273,0.164839 -4.01033,0.507202 -2.04416,0.547779 -4.2702,1.789508 -5.29797,4.162175 -1.02778,2.372667 -0.41092,4.845965 0.58773,6.711804 0.99864,1.865838 2.4464,3.491936 4.23709,5.102461 3.58139,3.221052 8.6127,6.31842 14.54017,8.886038 5.92747,2.567615 11.628579,4.119494 16.427949,4.528753 2.39969,0.204633 4.57591,0.147953 6.62007,-0.399831 2.04415,-0.547777 4.26899,-1.789908 5.29677,-4.162575 1.02777,-2.372666 0.41211,-4.845165 -0.58653,-6.711002 -0.99864,-1.865837 -2.446,-3.492337 -4.2367,-5.102862 -3.58138,-3.221049 -8.61311,-6.318023 -14.540569,-8.885638 -5.92747,-2.567618 -11.62818,-4.119487 -16.42755,-4.528754 -0.89989,-0.07674 -1.76824,-0.116605 -2.61013,-0.107771 z m 0.79686,7.77268 c 0.35649,0.0053 0.74097,0.02409 1.15382,0.05929 3.6145,0.308224 8.72321,1.629947 14.00573,3.91819 5.282509,2.288239 9.739639,5.11007 12.436849,7.535906 1.23231,1.108328 1.95939,2.068869 2.36333,2.738326 -0.76465,0.163253 -1.96269,0.289858 -3.61411,0.149035 -3.6145,-0.308227 -8.721609,-1.62955 -14.004119,-3.917789 -5.28252,-2.288242 -9.74125,-5.110473 -12.43845,-7.536306 -1.23232,-1.108332 -1.9594,-2.068872 -2.36334,-2.738326 0.57349,-0.122442 1.39083,-0.224486 2.46029,-0.208329 z"
                style="fill:#ffffff;stroke-width:0.232582;stroke-linecap:round;stroke-dasharray:none"
                id="path26-2"/>
        <path
                d="m 63.210691,67.202573 c -1.46764,0.01716 -2.87103,0.49161 -4.03718,1.115763 -1.86584,0.998644 -3.49234,2.447602 -5.10286,4.238296 -3.221058,3.581388 -6.318425,8.612703 -8.886043,14.540171 -2.567618,5.927465 -4.119489,11.628576 -4.528755,16.427947 -0.204633,2.39969 -0.14795,4.5759 0.399832,6.62006 0.547778,2.04416 1.789907,4.26899 4.162576,5.29677 2.372669,1.02777 4.84516,0.41212 6.711002,-0.58653 1.865838,-0.99864 3.492338,-2.446 5.102858,-4.23669 3.22106,-3.58139 6.31802,-8.6131 8.88564,-14.540566 2.56762,-5.927467 4.11949,-11.628176 4.52876,-16.427555 0.20463,-2.399689 0.14875,-4.577502 -0.39903,-6.621662 -0.54778,-2.044159 -1.78991,-4.268591 -4.16258,-5.296367 -0.88975,-0.385416 -1.79364,-0.539935 -2.67422,-0.529637 z m -0.63741,8.174114 c 0.16325,0.764651 0.28986,1.962694 0.14903,3.61411 -0.30822,3.614502 -1.63035,8.723211 -3.91859,14.005724 -2.28824,5.282518 -5.10967,9.739639 -7.535502,12.436849 -1.108332,1.23232 -2.068869,1.95939 -2.738326,2.36333 -0.163254,-0.76465 -0.28986,-1.96269 -0.149036,-3.61411 0.308227,-3.6145 1.629547,-8.721603 3.917794,-14.00412 2.28824,-5.282514 5.11047,-9.741238 7.5363,-12.438449 1.10833,-1.232318 2.06887,-1.959391 2.73833,-2.363334 z"
                style="fill:#ffffff;stroke-width:0.232582;stroke-linecap:round;stroke-dasharray:none"
                id="path25-4"/>
    </g>
</svg>
