<?xml version="1.0" encoding="UTF-8" standalone="no"?>
<!-- Created with Inkscape (http://www.inkscape.org/) -->

<svg
        width="512"
        height="512"
        viewBox="0 0 135.46666 135.46667"
        version="1.1"
        id="svg1"
        sodipodi:docname="drawing.svg"
        inkscape:version="1.3.2 (091e20e, 2023-11-25, custom)"
        xmlns:inkscape="http://www.inkscape.org/namespaces/inkscape"
        xmlns:sodipodi="http://sodipodi.sourceforge.net/DTD/sodipodi-0.dtd"
        xmlns="http://www.w3.org/2000/svg"
>
    <sodipodi:namedview
            id="namedview1"
            pagecolor="#505050"
            bordercolor="#eeeeee"
            borderopacity="1"
            inkscape:showpageshadow="0"
            inkscape:pageopacity="0"
            inkscape:pagecheckerboard="0"
            inkscape:deskcolor="#505050"
            inkscape:document-units="mm"
            inkscape:zoom="1.1705808"
            inkscape:cx="222.96624"
            inkscape:cy="160.60404"
            inkscape:window-width="2560"
            inkscape:window-height="1571"
            inkscape:window-x="-9"
            inkscape:window-y="-9"
            inkscape:window-maximized="1"
            inkscape:current-layer="layer1"/>
    <defs
            id="defs1"/>
    <g
            inkscape:label="Layer 1"
            inkscape:groupmode="layer"
            id="layer1">
        <rect
                style="fill:#000000;stroke-width:0.3;stroke-linecap:round;fill-opacity:1"
                id="rect1"
                width="230.32191"
                height="215.85617"
                x="-52.438354"
                y="-33.452053"/>
        <path
                d="m 44.605546,1.352889 c -0.955088,0.019318 -1.930875,0.1954501 -2.900081,0.578776 -3.101461,1.2266436 -4.794757,4.0427833 -5.585706,6.6554078 -0.790947,2.6126242 -0.951875,5.4172082 -0.787549,8.5193762 0.328651,6.204335 2.091324,13.619018 5.155758,21.367172 0.270993,0.685182 0.554193,1.349988 0.836125,2.016931 6.820795,3.135427 12.633709,6.800911 16.86512,10.606587 2.30975,2.077361 4.178735,4.175349 5.46685,6.582028 1.0621,1.984399 1.767547,4.501675 1.246435,7.039363 0.488927,-0.09436 0.979377,-0.229722 1.468645,-0.42323 0.491178,-0.194263 0.94317,-0.432265 1.365808,-0.699182 -2.115053,-1.494655 -3.321158,-3.813065 -3.903638,-5.986715 -0.706561,-2.636683 -0.778646,-5.445813 -0.514697,-8.54108 0.483351,-5.668153 2.215326,-12.31531 5.044136,-19.264974 -0.251177,-0.68122 -0.499787,-1.361895 -0.771529,-2.048971 C 64.526789,20.006224 60.740698,13.392005 56.736589,8.641333 54.734533,6.2659959 52.698955,4.3294864 50.334912,2.9646769 48.709633,2.0263704 46.706741,1.3103888 44.605546,1.352889 Z m 1.053683,10.568864 c 0.846292,0.548292 2.052528,1.527867 3.430798,3.163114 3.015572,3.577823 6.471538,9.442226 9.202539,16.347323 2.731001,6.905097 4.220431,13.544373 4.467944,18.216976 0.113127,2.135619 -0.09669,3.675659 -0.338997,4.654496 -0.846281,-0.548176 -2.054344,-1.526535 -3.432866,-3.162081 -3.015615,-3.577804 -6.470504,-9.440675 -9.201505,-16.345772 -2.731001,-6.905097 -4.221982,-13.54644 -4.469495,-18.219043 -0.113147,-2.136007 0.09921,-3.676267 0.341582,-4.655013 z"
                style="fill:#ffffff;stroke-linecap:round;stroke-width:0.3;stroke-dasharray:none"
                id="path32"/>
        <path
                d="m 120.5606,35.246427 c -0.73983,-0.0044 -1.49667,0.01628 -2.27221,0.05736 -6.20434,0.328652 -13.61902,2.090807 -21.367174,5.155241 -0.614227,0.24293 -1.208547,0.497559 -1.808159,0.749308 -3.149824,6.883035 -6.839321,12.748719 -10.6717,17.009815 -2.077359,2.30975 -4.175864,4.178735 -6.582544,5.46685 -2.020251,1.081289 -4.592286,1.796782 -7.176306,1.22008 0.09426,0.478466 0.227684,0.958378 0.417029,1.437122 0.215287,0.544334 0.481886,1.04282 0.785482,1.503267 1.492439,-2.165299 3.84454,-3.39287 6.045626,-3.982702 1.647927,-0.441601 3.362945,-0.635233 5.172811,-0.654224 1.085919,-0.0114 2.205994,0.04003 3.366719,0.13901 5.629873,0.480088 12.22487,2.191378 19.123376,4.986258 0.68072,-0.250997 1.36086,-0.499473 2.04742,-0.771012 7.74816,-3.064434 14.36238,-6.850523 19.11305,-10.854634 2.37534,-2.002055 4.30978,-4.037119 5.67459,-6.40116 1.36481,-2.364045 2.26017,-5.527988 1.03353,-8.629448 -1.22665,-3.10146 -4.0433,-4.795277 -6.65593,-5.586222 -1.95946,-0.593212 -4.02613,-0.831825 -6.24561,-0.84491 z m -0.25218,10.013859 c 1.37922,0.023 2.42833,0.187348 3.1626,0.36897 -0.54852,0.846318 -1.52588,2.054576 -3.16053,3.432349 -3.57783,3.015571 -9.44223,6.471021 -16.34733,9.202022 -6.905094,2.731001 -13.544886,4.220947 -18.217489,4.468461 -2.134848,0.113085 -3.673927,-0.09993 -4.652946,-0.342098 0.548527,-0.846319 1.526416,-2.052531 3.161047,-3.430281 3.577823,-3.015571 9.440158,-6.470505 16.345258,-9.201506 6.90509,-2.731001 13.54696,-4.221464 18.21956,-4.468978 0.5337,-0.02827 1.03009,-0.03661 1.48983,-0.02894 z"
                style="fill:#ffffff;stroke-linecap:round;stroke-width:0.3;stroke-dasharray:none"
                id="path31"/>
        <path
                d="m 70.628764,70.734184 c -0.510448,0.09417 -1.022725,0.235583 -1.533757,0.437699 -0.510948,0.202083 -0.980172,0.450853 -1.416967,0.731222 2.175206,1.491345 3.406955,3.848551 3.998205,6.054927 0.706563,2.636687 0.778646,5.44581 0.514697,8.541081 -0.483456,5.669435 -2.216698,12.317811 -5.04672,19.269107 0.2394,0.64682 0.474356,1.29251 0.732255,1.94459 3.064434,7.74815 6.848456,14.36288 10.852568,19.11356 2.002054,2.37533 4.038665,4.30874 6.40271,5.67355 2.364041,1.36481 5.526437,2.26069 8.627897,1.03405 3.10146,-1.22665 4.795273,-4.04279 5.586222,-6.65541 0.790946,-2.61263 0.953936,-5.41618 0.789616,-8.51834 C 99.806837,112.15588 98.042616,104.74171 94.978182,96.993563 94.720505,96.34205 94.450444,95.710901 94.182882,95.07585 87.363171,91.940675 81.551241,88.275507 77.320345,84.470296 75.010597,82.392938 73.14316,80.295465 71.855046,77.888786 70.776925,75.874454 70.061867,73.310791 70.628764,70.734184 Z m 2.418457,10.430888 c 0.846315,0.548511 2.054577,1.525359 3.432348,3.160013 3.015569,3.577817 6.468438,9.441193 9.199439,16.346285 2.731001,6.9051 4.222496,13.54437 4.470011,18.21698 0.11309,2.13492 -0.09888,3.67549 -0.341064,4.6545 -0.846317,-0.5485 -2.055048,-1.52737 -3.432865,-3.16208 -3.015574,-3.57783 -6.468438,-9.4412 -9.199439,-16.34629 -2.731001,-6.9051 -4.223017,-13.543864 -4.470528,-18.216462 -0.113084,-2.134845 0.09993,-3.673933 0.342098,-4.652946 z"
                style="fill:#ffffff;stroke-linecap:round;stroke-width:0.3;stroke-dasharray:none"
                id="path30"/>
        <path
                d="m 29.768726,67.172644 c -0.64668,0.239329 -1.292144,0.474416 -1.944068,0.732255 -7.748153,3.064434 -14.361856,6.850525 -19.1125283,10.854635 -2.375337,2.002055 -4.3097796,4.0366 -5.674589,6.400643 -1.3648094,2.364042 -2.26068869,5.526437 -1.0340454,8.627897 1.2266433,3.10146 4.0438171,4.796825 6.6564412,5.587772 2.6126245,0.790944 5.4151415,0.952394 8.5173095,0.788064 6.204334,-0.328652 13.619018,-2.091321 21.367171,-5.155756 0.651663,-0.257736 1.283043,-0.527654 1.918229,-0.7953 3.135261,-6.820079 6.800184,-12.632498 10.605555,-16.86357 2.077361,-2.309753 4.175346,-4.178734 6.582027,-5.46685 1.504176,-0.805072 3.314384,-1.41705 5.207434,-1.439189 0.641149,-0.0075 1.291925,0.06236 1.943551,0.205673 -0.09431,-0.508011 -0.232987,-1.01807 -0.434082,-1.526522 -0.202026,-0.510805 -0.450975,-0.979758 -0.731222,-1.416451 -1.491307,2.175802 -3.848741,3.407901 -6.055444,3.999239 -2.636694,0.706564 -5.445801,0.778647 -8.541081,0.514697 -5.669739,-0.483486 -12.31889,-2.216951 -19.270658,-5.047237 z m 21.444169,5.533512 c 1.380164,0.02325 2.430089,0.188222 3.164148,0.370004 -0.548291,0.846293 -1.527867,2.052527 -3.163115,3.430798 -3.577821,3.015571 -9.442225,6.471538 -16.347322,9.202539 -6.905098,2.731001 -13.54489,4.22043 -18.217493,4.467944 -2.135618,0.113126 -3.675141,-0.09669 -4.65398,-0.338997 0.548178,-0.846281 1.526536,-2.054861 3.162081,-3.433382 3.577823,-3.015571 9.440675,-6.469988 16.345773,-9.200989 6.905097,-2.731001 13.54644,-4.221981 18.219043,-4.469495 0.534002,-0.02829 1.03081,-0.03617 1.490865,-0.02842 z"
                style="fill:#ffffff;stroke-linecap:round;stroke-width:0.3;stroke-dasharray:none"
                id="path29"/>
        <path
                d="m 14.877645,33.654793 c -1.809875,0.01899 -3.524359,0.213138 -5.1722943,0.654741 -2.6366966,0.706564 -5.5064454,2.30875 -6.8321411,5.369181 -1.3256957,3.060431 -0.5315769,6.249631 0.756543,8.656319 1.2881199,2.406689 3.1550234,4.50466 5.4647827,6.582027 4.6195197,4.154736 11.1092727,8.149426 18.7549277,11.461316 7.645654,3.31189 14.999355,5.313605 21.189921,5.841504 3.095283,0.26395 5.904384,0.191868 8.541081,-0.514697 2.636696,-0.706565 5.505928,-2.30875 6.831624,-5.369181 1.325696,-3.060432 0.532094,-6.250148 -0.756026,-8.656836 -1.28812,-2.406689 -3.157091,-4.504659 -5.46685,-6.582028 C 53.569694,46.942404 47.07994,42.947197 39.434285,39.635307 31.788631,36.323417 24.434931,34.321703 18.244364,33.793803 17.083633,33.694822 15.96357,33.643399 14.877645,33.654793 Z m 1.029394,10.026778 c 0.459823,0.0069 0.956271,0.03107 1.488798,0.07648 4.662233,0.397571 11.249747,2.101906 18.063497,5.053438 6.813751,2.951532 12.564934,6.591843 16.043982,9.720854 1.589528,1.429601 2.527361,2.668573 3.048393,3.532084 -0.986298,0.210577 -2.531622,0.37388 -4.661731,0.192236 -4.662234,-0.397571 -11.251813,-2.102423 -18.065564,-5.053955 -6.81375,-2.951532 -12.562868,-6.591326 -16.041915,-9.720337 -1.589528,-1.429602 -2.52736,-2.668572 -3.048393,-3.532084 0.739724,-0.157932 1.793465,-0.289557 3.172933,-0.268718 z"
                style="fill:#ffffff;stroke-linecap:round;stroke-width:0.3;stroke-dasharray:none"
                id="path28"/>
        <path
                d="M 92.41038,2.2195028 C 90.517324,2.2416409 88.707127,2.8536159 87.202946,3.6586914 84.796257,4.9468113 82.698803,6.8137148 80.621436,9.1234741 76.4667,13.742993 72.471493,20.232747 69.159603,27.878402 c -3.31189,7.645654 -5.313087,14.999354 -5.840987,21.189921 -0.26395,3.095283 -0.191868,5.904384 0.514697,8.54108 0.706565,2.636697 2.30875,5.505929 5.369181,6.831625 3.060432,1.325696 6.249631,0.532093 8.656319,-0.756026 2.40669,-1.28812 4.505177,-3.157091 6.582544,-5.46685 4.15474,-4.619518 8.149943,-11.109274 11.461833,-18.754928 3.31189,-7.645654 5.31309,-14.999353 5.84099,-21.189921 0.26395,-3.095283 0.19135,-5.902316 -0.51522,-8.5390134 C 100.5224,7.097592 98.920214,4.2278445 95.859782,2.9021484 94.71212,2.4050126 93.546214,2.2062199 92.41038,2.2195028 Z M 91.588208,12.763045 c 0.210577,0.986298 0.373881,2.531621 0.192236,4.661731 -0.39757,4.662233 -2.101906,11.249746 -5.053438,18.063497 -2.951532,6.813751 -6.591843,12.564935 -9.720854,16.043982 -1.429602,1.589529 -2.668572,2.527361 -3.532084,3.048393 -0.210576,-0.986298 -0.373881,-2.531621 -0.192236,-4.661731 0.397571,-4.662233 2.102423,-11.251813 5.053955,-18.065564 2.951532,-6.813751 6.591327,-12.562868 9.720337,-16.041915 1.429602,-1.589529 2.668573,-2.52736 3.532084,-3.048393 z"
                style="fill:#ffffff;stroke-linecap:round;stroke-width:0.3;stroke-dasharray:none"
                id="path27"/>
        <path
                d="m 83.103455,63.208545 c -1.809875,0.01899 -3.524876,0.212621 -5.172811,0.654224 -2.636697,0.706564 -5.507996,2.308233 -6.833692,5.368664 -1.325695,3.060431 -0.530026,6.250664 0.758094,8.657353 1.288119,2.406688 3.155541,4.504143 5.465299,6.58151 4.619524,4.154738 11.109266,8.14994 18.754928,11.461833 7.645657,3.311889 14.999357,5.313611 21.189917,5.841501 3.09528,0.26395 5.90232,0.19084 8.53902,-0.51573 2.63669,-0.70656 5.50644,-2.308748 6.83214,-5.369179 1.32569,-3.060431 0.53157,-6.249632 -0.75654,-8.656319 -1.28812,-2.406687 -3.15503,-4.50466 -5.46479,-6.582028 -4.61951,-4.154734 -11.10979,-8.149427 -18.75544,-11.461316 -7.64566,-3.311893 -14.998835,-5.313602 -21.189406,-5.841503 -1.16073,-0.09898 -2.280795,-0.150405 -3.366719,-0.13901 z m 1.027844,10.025745 c 0.459823,0.0069 0.955752,0.03107 1.488281,0.07648 4.662228,0.397569 11.251805,2.10242 18.06556,5.053955 6.81375,2.951531 12.56287,6.591325 16.04192,9.720337 1.58952,1.4296 2.52736,2.668572 3.04839,3.532084 -0.9863,0.210576 -2.53162,0.373879 -4.66173,0.192236 -4.66224,-0.397572 -11.24975,-2.101907 -18.0635,-5.053438 C 93.236465,83.80441 87.485284,80.1641 84.006242,77.035091 c -1.589535,-1.429604 -2.527367,-2.668575 -3.048393,-3.532084 0.739719,-0.157934 1.793979,-0.289558 3.17345,-0.268717 z"
                style="fill:#ffffff;stroke-linecap:round;stroke-width:0.3;stroke-dasharray:none"
                id="path26"/>
        <path
                d="m 62.857662,70.443245 c -1.893058,0.02214 -3.703252,0.634113 -5.207434,1.439189 -2.406691,1.288121 -4.504657,3.157088 -6.582027,5.46685 -4.15474,4.619524 -8.14994,11.109266 -11.461833,18.754927 -3.311893,7.645659 -5.313604,14.999349 -5.841504,21.189919 -0.26395,3.09529 -0.190836,5.90232 0.515731,8.53902 0.706563,2.6367 2.308747,5.50644 5.369181,6.83214 3.060435,1.32569 6.249626,0.53158 8.656319,-0.75655 2.406691,-1.28811 4.504657,-3.15502 6.582028,-5.46478 4.154743,-4.61952 8.149422,-11.10978 11.461315,-18.75544 3.311893,-7.64566 5.313608,-14.998833 5.841504,-21.189407 0.26395,-3.095286 0.191869,-5.904381 -0.514697,-8.541081 -0.706565,-2.636699 -2.308746,-5.505927 -5.369181,-6.831624 -1.147663,-0.497136 -2.313567,-0.696446 -3.449402,-0.683163 z M 62.03549,80.986788 c 0.210577,0.9863 0.373881,2.531619 0.192236,4.661731 -0.397571,4.662237 -2.102937,11.251806 -5.054472,18.065561 -2.951535,6.81376 -6.590805,12.56287 -9.71982,16.04192 -1.429603,1.58953 -2.668571,2.52736 -3.532084,3.04839 -0.210576,-0.9863 -0.373881,-2.53162 -0.192236,-4.66173 0.397572,-4.66224 2.101903,-11.24974 5.053438,-18.0635 2.951535,-6.813755 6.591841,-12.564928 9.720854,-16.043979 1.429603,-1.58953 2.668572,-2.527359 3.532084,-3.048393 z"
                style="fill:#ffffff;stroke-linecap:round;stroke-width:0.3;stroke-dasharray:none"
                id="path25"/>
    </g>
</svg>
